<svg xmlns="http://www.w3.org/2000/svg" width="15.75" height="18" viewBox="10.125 -1.428 15.75 18"><path d="M25.453 15.447h-.703V-.585a.844.844 0 0 0-.844-.843H12.094a.844.844 0 0 0-.844.843v16.032h-.703a.422.422 0 0 0-.422.421v.704h15.75v-.704a.422.422 0 0 0-.422-.421ZM14.625 1.243c0-.233.189-.421.422-.421h1.406c.233 0 .422.188.422.421V2.65a.422.422 0 0 1-.422.422h-1.406a.422.422 0 0 1-.422-.422V1.243Zm0 3.375c0-.233.189-.421.422-.421h1.406c.233 0 .422.188.422.421v1.407a.422.422 0 0 1-.422.422h-1.406a.422.422 0 0 1-.422-.422V4.618Zm1.828 5.204h-1.406a.422.422 0 0 1-.422-.422V7.993c0-.233.189-.421.422-.421h1.406c.233 0 .422.188.422.421V9.4a.422.422 0 0 1-.422.422Zm2.672 5.625h-2.25v-2.954c0-.233.189-.421.422-.421h1.406c.233 0 .422.188.422.421v2.954Zm2.25-6.047a.422.422 0 0 1-.422.422h-1.406a.422.422 0 0 1-.422-.422V7.993c0-.233.189-.421.422-.421h1.406c.233 0 .422.188.422.421V9.4Zm0-3.375a.422.422 0 0 1-.422.422h-1.406a.422.422 0 0 1-.422-.422V4.618c0-.233.189-.421.422-.421h1.406c.233 0 .422.188.422.421v1.407Zm0-3.375a.422.422 0 0 1-.422.422h-1.406a.422.422 0 0 1-.422-.422V1.243c0-.233.189-.421.422-.421h1.406c.233 0 .422.188.422.421V2.65Z" fill-rule="evenodd" data-name="Icon awesome-building"/></svg>