<svg xmlns="http://www.w3.org/2000/svg" width="12.778" height="10.223" viewBox="313.111 203.889 12.778 10.223"><path d="M319.5 211.875a2.864 2.864 0 0 1-2.853-2.658l-2.094-1.618c-.276.345-.53.71-.734 1.11a.646.646 0 0 0 0 .582c1.083 2.113 3.227 3.542 5.681 3.542.537 0 1.056-.08 1.555-.208l-1.036-.802c-.17.033-.345.05-.519.052Zm6.266 1.16-2.207-1.706a6.614 6.614 0 0 0 1.622-2.038.646.646 0 0 0 0-.583c-1.083-2.112-3.226-3.541-5.68-3.541a6.152 6.152 0 0 0-2.942.752l-2.54-1.963a.32.32 0 0 0-.449.056l-.392.505a.32.32 0 0 0 .056.448l11.748 9.079a.32.32 0 0 0 .448-.056l.392-.505a.32.32 0 0 0-.056-.448Zm-3.668-2.835-.785-.607a1.892 1.892 0 0 0-2.318-2.434c.12.163.185.36.186.563a.931.931 0 0 1-.031.2l-1.47-1.136a2.841 2.841 0 0 1 1.82-.661 2.873 2.873 0 0 1 2.875 2.875c0 .432-.105.834-.277 1.2Z" fill="#4a1fff" fill-rule="evenodd" data-name="Icon awesome-eye-slash"/></svg>