<svg xmlns="http://www.w3.org/2000/svg" width="41.548" height="41.548" viewBox="257 768 41.548 41.548"><path d="M262.107 792.682c1.59 0 4.695-.713 6.085-1.206 1.617-.567 2.006-.978 2.222-2.309.179-1.109.163-1.958 1.066-2.536.898-.584 3.466-.936 6.295-.941 2.834 0 5.397.357 6.295.94.903.59.882 1.434 1.066 2.537.216 1.33.6 1.747 2.222 2.31 1.396.497 4.49 1.21 6.084 1.205 1.59 0 1.596-.351 1.877-.946 0 0 .39-.909.606-1.98.265-1.324.265-2.211-.087-3.19-.357-.974-1.238-2.57-6.29-3.986-4.077-1.147-7.495-1.687-11.762-1.682H277.765c-4.273 0-7.686.535-11.764 1.682-5.051 1.417-5.933 3.012-6.29 3.986-.356.973-.356 1.86-.086 3.19.216 1.071.606 1.98.606 1.98.281.595.281.952 1.876.946Z" fill="#fff" fill-rule="evenodd" data-name="Icon ionic-ios-call"/></svg>