<svg xmlns="http://www.w3.org/2000/svg" width="23.034" height="23.039" viewBox="29.228 532.457 23.034 23.039"><path d="M44.858 539.517c-.673-4.148-2.262-7.06-4.11-7.06-1.85 0-3.438 2.912-4.111 7.06h8.221Zm-8.57 4.46c0 1.03.056 2.02.154 2.972h8.607a29.114 29.114 0 0 0 0-5.945h-8.607a29.114 29.114 0 0 0-.154 2.973Zm15.083-4.46a11.544 11.544 0 0 0-7.34-6.577c1.134 1.57 1.914 3.934 2.323 6.577h5.017Zm-13.912-6.577a11.536 11.536 0 0 0-7.334 6.577h5.016c.404-2.643 1.185-5.007 2.318-6.577Zm14.409 8.064H46.54c.097.975.153 1.974.153 2.973 0 .998-.056 1.997-.153 2.972h5.323c.255-.952.4-1.941.4-2.972 0-1.032-.145-2.021-.395-2.973Zm-17.066 2.973c0-1 .056-1.998.153-2.973h-5.328c-.25.952-.399 1.941-.399 2.973 0 1.03.149 2.02.4 2.972h5.323a31.453 31.453 0 0 1-.149-2.972Zm1.835 4.459c.673 4.148 2.262 7.06 4.11 7.06 1.85 0 3.438-2.912 4.111-7.06h-8.221Zm7.4 6.577a11.555 11.555 0 0 0 7.338-6.577H46.36c-.41 2.643-1.19 5.007-2.323 6.577Zm-13.912-6.577a11.544 11.544 0 0 0 7.339 6.577c-1.134-1.57-1.914-3.934-2.323-6.577h-5.016Z" fill="#4a1fff" fill-rule="evenodd" data-name="Icon awesome-globe"/></svg>