<svg xmlns="http://www.w3.org/2000/svg" width="19.958" height="19.951"><g data-name="Icon ionic-ios-home"><path d="M10.096 2.69a.188.188 0 0 0-.24 0L2.376 8.677a.201.201 0 0 0-.072.149v11.03c0 .053.043.096.096.096h5.18a.096.096 0 0 0 .095-.096v-6.714c0-.053.044-.096.096-.096h4.413c.052 0 .095.043.095.096v6.714c0 .053.044.096.096.096h5.18a.096.096 0 0 0 .096-.096V8.825a.194.194 0 0 0-.072-.15l-7.482-5.984Z" fill-rule="evenodd" data-name="Path 27"/><path d="M19.698 7.491 10.633.231A1.044 1.044 0 0 0 9.976 0c-.24 0-.474.082-.657.23L5.372 3.44V1.415a.096.096 0 0 0-.096-.096H2.4a.096.096 0 0 0-.096.096v4.422L.255 7.52a.676.676 0 0 0-.254.49.679.679 0 0 0 .196.512.676.676 0 0 0 .897.048l8.82-7.098c.024-.019.043-.019.062-.019.02 0 .039.005.063.02l8.82 7.069a.676.676 0 0 0 1.098-.562.682.682 0 0 0-.26-.489Z" fill-rule="evenodd" data-name="Path 28"/></g></svg>