<svg xmlns="http://www.w3.org/2000/svg" width="23.469" height="18.44" viewBox="1.651 0 23.469 18.44"><g data-name="Icon ionic-ios-bed"><path d="M23.978 6.705h-.02c-.63 0-1.142.514-1.142 1.142a.116.116 0 0 1-.116.116H4.072a.116.116 0 0 1-.115-.116c0-.628-.514-1.142-1.143-1.142h-.02c-.63 0-1.142.514-1.142 1.142v9.45c0 .63.513 1.143 1.142 1.143h.02c.63 0 1.143-.513 1.143-1.142v-.325a.21.21 0 0 1 .209-.21h18.44a.21.21 0 0 1 .21.21v.325c0 .629.513 1.142 1.142 1.142h.02c.63 0 1.142-.513 1.142-1.142v-9.45c0-.63-.513-1.143-1.142-1.143Z" fill="#4a1fff" fill-rule="evenodd" data-name="Path 23"/><path d="M4.376 7.02h1.178a.21.21 0 0 0 .21-.21v-.68a.84.84 0 0 1 .838-.839h5.108a.84.84 0 0 1 .838.838v.681c0 .115.094.21.21.21h1.257a.21.21 0 0 0 .21-.21v-.68a.84.84 0 0 1 .837-.839h5.108a.84.84 0 0 1 .838.838v.681c0 .115.094.21.21.21h1.178a.42.42 0 0 0 .42-.42V1.677C22.816.754 22.06 0 21.139 0H5.633C4.71 0 3.957.754 3.957 1.676v4.925c0 .23.188.419.419.419Z" fill="#4a1fff" fill-rule="evenodd" data-name="Path 24"/></g></svg>