<svg xmlns="http://www.w3.org/2000/svg" width="20.29" height="14.047" viewBox="30.6 485.016 20.29 14.047"><g data-name="Icon ionic-ios-mail"><path d="m50.724 486.737-5.248 5.346a.094.094 0 0 0 0 .137l3.673 3.911a.633.633 0 0 1-.449 1.083.64.64 0 0 1-.449-.185l-3.658-3.897a.1.1 0 0 0-.141 0l-.893.907a3.927 3.927 0 0 1-2.8 1.18c-1.077.005-2.101-.449-2.857-1.214l-.859-.873a.1.1 0 0 0-.141 0l-3.658 3.897a.64.64 0 0 1-.898 0 .633.633 0 0 1 0-.898l3.673-3.911a.104.104 0 0 0 0-.137l-5.253-5.346a.096.096 0 0 0-.166.069v10.696c0 .858.702 1.56 1.56 1.56h17.17c.858 0 1.56-.702 1.56-1.56v-10.696c0-.088-.107-.127-.166-.069Z" fill="#4a1fff" fill-rule="evenodd" data-name="Path 41"/><path d="M40.745 493.946c.722 0 1.4-.283 1.907-.8l7.653-7.789a1.533 1.533 0 0 0-.966-.341H32.156c-.366 0-.702.126-.966.341l7.653 7.79c.502.511 1.18.8 1.902.8Z" fill="#4a1fff" fill-rule="evenodd" data-name="Path 42"/></g></svg>