<svg xmlns="http://www.w3.org/2000/svg" width="20.916" height="20.921" viewBox="34.242 122.539 20.916 20.921"><path d="m54.913 141.946-5.817-5.871a8.335 8.335 0 0 0-6.514-13.535 8.34 8.34 0 0 0-8.34 8.338 8.335 8.335 0 0 0 8.34 8.334 8.31 8.31 0 0 0 5.255-1.863l5.78 5.834a.891.891 0 0 0 .648.277.883.883 0 0 0 .615-.245c.36-.343.37-.91.033-1.269ZM42.58 137.42a6.506 6.506 0 0 1-4.63-1.917 6.502 6.502 0 0 1-1.917-4.625c0-1.748.681-3.393 1.918-4.624a6.506 6.506 0 0 1 4.63-1.917c1.748 0 3.393.68 4.629 1.917a6.502 6.502 0 0 1 1.917 4.624c0 1.749-.68 3.394-1.917 4.625a6.506 6.506 0 0 1-4.63 1.917Z" fill="#4a1fff" fill-rule="evenodd" data-name="Icon ionic-ios-search"/></svg>