<svg xmlns="http://www.w3.org/2000/svg" width="22.132" height="19.673" viewBox="242.868 53 22.132 19.673"><path d="M253.934 53a4.841 4.841 0 0 0-4.841 4.841c0 2.162 3.164 6.102 4.376 7.532.246.29.685.29.93 0 1.212-1.43 4.376-5.37 4.376-7.532A4.841 4.841 0 0 0 253.934 53Zm0 6.455a1.614 1.614 0 1 1 0-3.227 1.614 1.614 0 0 1 0 3.227Zm-10.293 1.843a1.23 1.23 0 0 0-.773 1.141v9.618c0 .435.44.733.843.571l5.305-2.414v-8.956a11.636 11.636 0 0 1-.817-1.784l-4.558 1.824Zm10.293 5.522c-.54 0-1.052-.238-1.403-.652a40.586 40.586 0 0 1-2.286-2.948v6.993l7.378 2.46V63.22a40.562 40.562 0 0 1-2.286 2.948c-.35.413-.862.65-1.403.65Zm10.223-7.628-5.305 2.415v11.066l5.375-2.15a1.23 1.23 0 0 0 .773-1.142v-9.618a.615.615 0 0 0-.843-.57Z" fill="#4a1fff" fill-rule="evenodd" data-name="Icon awesome-map-marked-alt"/></svg>