<svg xmlns="http://www.w3.org/2000/svg" width="14.671" height="14.671" viewBox="22 621 14.671 14.671"><path d="m26.328 626.942-1.027 1.027 3.301 3.301 7.336-7.336-1.027-1.027-6.309 6.272-2.274-2.237Zm8.876 1.394c0 3.227-2.64 5.868-5.868 5.868s-5.869-2.64-5.869-5.868 2.641-5.869 5.869-5.869c.55 0 1.1.074 1.614.22l1.137-1.137a6.824 6.824 0 0 0-2.751-.55C25.3 621 22 624.301 22 628.336c0 4.034 3.301 7.335 7.336 7.335 4.034 0 7.335-3.3 7.335-7.335h-1.467Z" fill="#4a1fff" fill-rule="evenodd" data-name="Icon ionic-md-checkmark-circle-outline"/></svg>