<svg xmlns="http://www.w3.org/2000/svg" width="16.572" height="16.572" viewBox="6.714 0 16.572 16.572"><path d="M15 0a8.282 8.282 0 0 0-8.238 9.158A8.282 8.282 0 0 0 15 16.572a8.285 8.285 0 0 0 8.286-8.286A8.285 8.285 0 0 0 15 0Zm5.41 12.99a56.876 56.876 0 0 0-3.283-1.115c-.095-.028-.107-.036-.107-.426 0-.323.131-.65.263-.928a4.63 4.63 0 0 0 .366-1.26c.167-.194.398-.577.542-1.31.127-.645.068-.88-.016-1.1-.008-.023-.02-.047-.024-.067-.032-.151.012-.936.124-1.546.075-.418-.02-1.306-.594-2.043-.363-.466-1.06-1.036-2.33-1.116h-.698c-1.25.08-1.944.65-2.31 1.116-.578.737-.673 1.625-.598 2.043.112.61.156 1.395.124 1.546-.008.028-.016.048-.024.072-.084.219-.147.454-.016 1.1.147.732.375 1.115.542 1.31.06.454.227.956.366 1.259.104.219.152.518.152.94 0 .394-.016.398-.104.426-.944.279-2.346.773-3.187 1.107A7.107 7.107 0 0 1 7.83 8.286c0-1.916.744-3.717 2.099-5.071A7.123 7.123 0 0 1 15 1.115c1.916 0 3.717.745 5.071 2.1a7.123 7.123 0 0 1 2.1 5.07 7.105 7.105 0 0 1-1.761 4.706Z" fill-rule="evenodd" data-name="Icon ionic-ios-contact"/></svg>