<svg xmlns="http://www.w3.org/2000/svg" width="27" height="15.75" viewBox="311 54.961 27 15.75"><g data-name="Icon ionic-ios-menu"><path d="M336.875 57.21h-24.75A1.128 1.128 0 0 1 311 56.087c0-.619.506-1.125 1.125-1.125h24.75c.619 0 1.125.506 1.125 1.125s-.506 1.125-1.125 1.125Z" fill="#4a1fff" fill-rule="evenodd" data-name="Path 20"/><path d="M336.875 63.96h-24.75A1.128 1.128 0 0 1 311 62.837c0-.619.506-1.125 1.125-1.125h24.75c.619 0 1.125.506 1.125 1.125s-.506 1.125-1.125 1.125Z" fill="#4a1fff" fill-rule="evenodd" data-name="Path 21"/><path d="M336.875 70.71h-24.75A1.128 1.128 0 0 1 311 69.587c0-.619.506-1.125 1.125-1.125h24.75c.619 0 1.125.506 1.125 1.125s-.506 1.125-1.125 1.125Z" fill="#4a1fff" fill-rule="evenodd" data-name="Path 22"/></g></svg>