<svg xmlns="http://www.w3.org/2000/svg" width="16.571" height="16.571" viewBox="6.714 0 16.571 16.571"><g data-name="Icon ionic-ios-chatbubbles"><path d="M21.971 10.86c0-.176.048-.343.132-.487.023-.044.055-.083.083-.123a6.455 6.455 0 0 0 1.1-3.597C23.298 2.98 20.198 0 16.366 0c-3.342 0-6.13 2.275-6.784 5.294a6.401 6.401 0 0 0-.147 1.363c0 3.676 2.98 6.736 6.812 6.736.61 0 1.43-.184 1.88-.307.45-.124.896-.287 1.012-.33a1.053 1.053 0 0 1 .773.011l2.258.801s.096.04.156.04c.175 0 .318-.14.318-.319 0-.04-.02-.107-.02-.107l-.653-2.323Z" fill-rule="evenodd" data-name="Path 16"/><path d="M17.49 13.723c-.144.04-.327.084-.526.128-.418.087-.952.18-1.355.18-3.832 0-6.811-3.06-6.811-6.737 0-.263.028-.598.06-.852.023-.172.051-.343.091-.51.04-.18.088-.359.14-.534l-.32.283C7.464 6.82 6.715 8.445 6.715 10.138c0 1.167.339 2.29.988 3.267.092.14.144.247.128.318-.016.072-.474 2.47-.474 2.47a.32.32 0 0 0 .107.307c.06.048.132.072.203.072.04 0 .08-.008.116-.024l2.235-.88a.622.622 0 0 1 .227-.045s.095-.008.25.052a6.704 6.704 0 0 0 2.419.478c1.856 0 3.6-.8 4.784-2.195l.275-.382a6.298 6.298 0 0 1-.482.147Z" fill-rule="evenodd" data-name="Path 17"/></g></svg>