<svg xmlns="http://www.w3.org/2000/svg" width="21.349" height="14.232"><path d="M20.46 0H3.261a.89.89 0 0 0-.89.89v.296H.89a.89.89 0 0 0-.89.89v10.08c0 1.147.93 2.076 2.076 2.076H19.57c.982 0 1.779-.796 1.779-1.779V.89a.89.89 0 0 0-.89-.89ZM2.075 12.453a.297.297 0 0 1-.297-.296V2.965h.593v9.192a.297.297 0 0 1-.296.296Zm8.747-.593H5.189a.445.445 0 0 1-.445-.444v-.297c0-.246.2-.445.445-.445h5.634c.245 0 .444.2.444.445v.297c0 .245-.199.444-.444.444Zm7.709 0h-5.634a.445.445 0 0 1-.445-.444v-.297c0-.246.2-.445.445-.445h5.634c.245 0 .445.2.445.445v.297c0 .245-.2.444-.445.444Zm-7.71-3.558H5.19a.445.445 0 0 1-.445-.445v-.296c0-.246.2-.445.445-.445h5.634c.245 0 .444.2.444.445v.296c0 .246-.199.445-.444.445Zm7.71 0h-5.634a.445.445 0 0 1-.445-.445v-.296c0-.246.2-.445.445-.445h5.634c.245 0 .445.2.445.445v.296c0 .246-.2.445-.445.445Zm0-3.558H5.189a.445.445 0 0 1-.445-.445V2.817c0-.246.2-.445.445-.445h13.343c.245 0 .445.2.445.445v1.482c0 .246-.2.445-.445.445Z" fill-rule="evenodd" data-name="Icon awesome-newspaper"/></svg>