<svg xmlns="http://www.w3.org/2000/svg" width="14.528" height="19.116"><g data-name="Icon ionic-ios-document"><path d="M9.94 4.731h4.35a.237.237 0 0 0 .238-.239c0-.425-.186-.826-.511-1.094L10.371.358a1.535 1.535 0 0 0-.985-.353.353.353 0 0 0-.354.353v3.465c0 .502.407.908.908.908Z" fill-rule="evenodd" data-name="Path 34"/><path d="M7.79 3.823V0H1.53C.687 0 0 .688 0 1.53v16.057c0 .841.688 1.53 1.53 1.53h11.469c.841 0 1.53-.689 1.53-1.53V5.974H9.94a2.154 2.154 0 0 1-2.15-2.15Z" fill-rule="evenodd" data-name="Path 35"/></g></svg>