<svg xmlns="http://www.w3.org/2000/svg" width="23.099" height="15.012"><g data-name="Icon ionic-ios-people"><path d="M16.339 11.55c-.576-.206-1.518-.217-1.934-.376-.289-.113-.746-.237-.896-.417-.149-.18-.149-1.466-.149-1.466s.36-.34.51-.72c.149-.376.246-1.415.246-1.415s.34.144.474-.535c.113-.587.329-.895.272-1.327-.061-.432-.298-.33-.298-.33s.298-.437.298-1.924c0-1.533-1.157-3.04-3.323-3.04-2.16 0-3.328 1.512-3.328 3.04 0 1.487.293 1.924.293 1.924s-.242-.102-.299.33c-.061.432.155.74.273 1.327.134.684.473.535.473.535s.098 1.034.247 1.415c.15.38.51.72.51.72s0 1.286-.15 1.466c-.149.18-.607.304-.895.412-.411.16-1.353.18-1.934.386-.576.205-2.356 1.142-2.356 3.457h14.316c.006-2.32-1.774-3.257-2.35-3.463Z" fill-rule="evenodd" data-name="Path 31"/><path d="M5.582 9.044s1.23-.041 1.718-.478c-.797-1.21-.365-2.619-.53-3.936-.164-1.312-.91-2.099-2.402-2.099h-.02c-1.441 0-2.218.782-2.383 2.099-.164 1.312.293 2.88-.525 3.936.49.442 1.724.427 1.724.427s.051.74-.052.864c-.102.123-.406.242-.617.283-.453.098-.931.231-1.332.37C.76 10.65 0 11.395 0 12.424h4.131c.113-.412.89-1.147 1.646-1.533.463-.237.921-.221 1.27-.268 0 0 .196-.308-.447-.427 0 0-.884-.22-.987-.344-.098-.113-.031-.808-.031-.808Z" fill-rule="evenodd" data-name="Path 32"/><path d="M17.517 9.044s-1.23-.041-1.718-.478c.797-1.21.365-2.619.53-3.936.164-1.312.91-2.099 2.402-2.099h.02c1.441 0 2.218.782 2.383 2.099.164 1.312-.294 2.88.524 3.936-.488.442-1.723.427-1.723.427s-.052.74.051.864c.103.123.407.242.618.283.452.098.93.231 1.332.37.401.14 1.163.885 1.163 1.914h-4.131c-.113-.412-.89-1.147-1.647-1.533-.463-.237-.92-.221-1.27-.268 0 0-.196-.308.447-.427 0 0 .885-.22.988-.344.098-.113.031-.808.031-.808Z" fill-rule="evenodd" data-name="Path 33"/></g></svg>