<svg xmlns="http://www.w3.org/2000/svg" width="27.692" height="27.692" viewBox="27.029 426 27.692 27.692"><path d="m48.722 447.603-3.657-3.556a1.005 1.005 0 0 0-1.198-.15l-2.848 1.624c-2.491-2.603-4-5.991-4.266-9.584l3.112-1.03c.426-.139.707-.543.69-.99l-.196-5.098a1.011 1.011 0 0 0-.866-.956l-4.425-.622a1.005 1.005 0 0 0-1.078.635c-3.848 10.025 1.164 21.254 11.174 25.097.437.168.932.012 1.193-.376l2.499-3.705c.27-.406.214-.947-.134-1.289Z" fill="#4a1fff" fill-rule="evenodd" data-name="Icon awesome-phone-alt"/></svg>