<svg xmlns="http://www.w3.org/2000/svg" width="18.51" height="18.809"><path d="M14.63 2.019a9.237 9.237 0 0 1 3.88 7.535c0 5.105-4.135 9.244-9.236 9.255C4.18 18.82.007 14.667 0 9.569a9.256 9.256 0 0 1 3.874-7.546.898.898 0 0 1 1.306.287l.59 1.049a.895.895 0 0 1-.247 1.157A6.24 6.24 0 0 0 2.986 9.55a6.265 6.265 0 0 0 6.27 6.273c3.418 0 6.291-2.769 6.269-6.31a6.272 6.272 0 0 0-2.542-5.001.89.89 0 0 1-.242-1.153l.59-1.049a.895.895 0 0 1 1.298-.291Zm-3.882 7.833V.896c0-.497-.4-.896-.896-.896H8.658c-.496 0-.896.4-.896.896v8.956c0 .497.4.896.896.896h1.194c.497 0 .896-.4.896-.896Z" fill-rule="evenodd" data-name="Icon awesome-power-off"/></svg>