<svg xmlns="http://www.w3.org/2000/svg" width="19.908" height="19.906" viewBox="0.288 -1.708 19.908 19.906"><path d="M14.492 6.431c-.622 0-1.225 0-1.79.196-2.42-2.062-8.818-7.508-9.306-8.015a.965.965 0 0 0-.718-.32c-.407 0-.8.248-1.02.459C1.329-.933.08.416.319.665c.719.737.91.885 1.207 1.187.445.454 1.354-.048 1.722.11.364.158.44.325.498.598.057.273-.139.756-.144 1.134-.004.397.163.613.44.91.22.238.426.41.747.416.43.01 1-.613 1.455-.149.454.464-.297 1.134-.24 1.627.058.493.742 1.091 1.034 1.153.292.063 1.043-.56 1.47-.464.143.034.478.326.526.546.047.22-.33 1.196-.283 1.416.058.268.34.58.498.833-.32.741-.45 1.416-.45 2.282 0 3.278 2.555 5.934 5.704 5.934 3.149 0 5.694-2.656 5.694-5.934s-2.555-5.833-5.704-5.833Zm1.11 8.704a1.53 1.53 0 0 1-1.53-1.53 1.53 1.53 0 0 1 1.53-1.532 1.53 1.53 0 0 1 1.532 1.531 1.53 1.53 0 0 1-1.531 1.531Z" fill-rule="evenodd" data-name="Icon ionic-ios-key"/></svg>