<svg xmlns="http://www.w3.org/2000/svg" width="23.469" height="20.535" viewBox="3.564 0 23.469 20.535"><path d="M25.933 10.268H7.23V3.667a1.467 1.467 0 0 1 2.705-.785 3.115 3.115 0 0 0 .313 3.806.55.55 0 0 0 .023.753l.518.52a.55.55 0 0 0 .778 0l4.356-4.357a.55.55 0 0 0 0-.778l-.518-.518a.55.55 0 0 0-.753-.023 3.11 3.11 0 0 0-2.942-.704 3.665 3.665 0 0 0-6.68 2.086v6.6h-.367a1.1 1.1 0 0 0-1.1 1.1v.734a1.1 1.1 0 0 0 1.1 1.1h.367v1.467a4.39 4.39 0 0 0 1.466 3.28v1.487a1.1 1.1 0 0 0 1.1 1.1h.734a1.1 1.1 0 0 0 1.1-1.1v-.366h11.734v.366a1.1 1.1 0 0 0 1.1 1.1H23a1.1 1.1 0 0 0 1.1-1.1v-1.487a4.39 4.39 0 0 0 1.467-3.28v-1.467h.367a1.1 1.1 0 0 0 1.1-1.1v-.733a1.1 1.1 0 0 0-1.1-1.1Z" fill-rule="evenodd" data-name="Icon awesome-bath"/></svg>