<svg xmlns="http://www.w3.org/2000/svg" width="17.326" height="17.325" viewBox="319.738 55.408 17.326 17.325"><path d="M336.563 68.973c-.663-.663-2.255-1.66-3.04-2.034-.91-.437-1.245-.428-1.89.036-.536.388-.884.749-1.502.614-.617-.131-1.835-1.056-3.017-2.233-1.182-1.182-2.102-2.4-2.233-3.017-.13-.623.23-.966.614-1.502.464-.645.478-.98.036-1.89-.375-.79-1.367-2.377-2.034-3.04-.663-.663-.812-.519-1.178-.388 0 0-.54.216-1.078.573-.663.442-1.032.812-1.294 1.366-.257.555-.555 1.588.96 4.285 1.223 2.179 2.423 3.83 4.204 5.607l.005.004.004.005c1.782 1.781 3.428 2.981 5.607 4.203 2.697 1.516 3.73 1.218 4.285.961.554-.257.924-.627 1.366-1.294.357-.537.573-1.078.573-1.078.13-.366.28-.515-.388-1.178Z" fill-rule="evenodd" data-name="Icon ionic-ios-call"/></svg>