<svg xmlns="http://www.w3.org/2000/svg" width="20.938" height="30.455" viewBox="125 771.773 20.938 30.455"><path d="M135.469 792.71a5.71 5.71 0 0 0 5.71-5.71v-9.517a5.71 5.71 0 1 0-11.42 0V787a5.71 5.71 0 0 0 5.71 5.71Zm9.517-9.517h-.952a.951.951 0 0 0-.952.952V787c0 4.45-3.836 8.02-8.374 7.577-3.956-.386-6.853-3.942-6.853-7.916v-2.516a.951.951 0 0 0-.952-.952h-.951a.951.951 0 0 0-.952.952v2.389c0 5.332 3.805 10.085 9.041 10.807v2.031h-3.33a.951.951 0 0 0-.952.952v.952c0 .525.425.951.951.951h9.517a.951.951 0 0 0 .952-.951v-.952a.951.951 0 0 0-.952-.952h-3.33v-2.009c5.097-.699 9.04-5.075 9.04-10.363v-2.855a.951.951 0 0 0-.951-.952Z" fill="#fff" fill-rule="evenodd" data-name="Icon awesome-microphone"/></svg>