<svg xmlns="http://www.w3.org/2000/svg" width="16.577" height="16.572" viewBox="3.184 0 16.577 16.572"><g data-name="Icon ionic-ios-home"><path d="M11.57 2.235a.156.156 0 0 0-.2 0L5.157 7.206a.167.167 0 0 0-.06.124v9.162c0 .044.036.08.08.08h4.302a.08.08 0 0 0 .08-.08v-5.577a.08.08 0 0 1 .08-.08h3.665a.08.08 0 0 1 .08.08v5.577c0 .044.035.08.08.08h4.301a.08.08 0 0 0 .08-.08V7.33a.16.16 0 0 0-.06-.124L11.57 2.235Z" fill="#4a1fff" fill-rule="evenodd" data-name="Path 14"/><path d="M19.545 6.222 12.016.192A.867.867 0 0 0 11.47 0c-.199 0-.394.068-.546.191L7.646 2.856v-1.68a.08.08 0 0 0-.08-.08h-2.39a.08.08 0 0 0-.08.08v3.672l-1.7 1.398a.562.562 0 0 0-.212.407.564.564 0 0 0 .164.426.554.554 0 0 0 .745.04l7.325-5.896c.02-.016.036-.016.052-.016s.032.004.052.016l7.326 5.872a.561.561 0 0 0 .912-.466.566.566 0 0 0-.215-.407Z" fill="#4a1fff" fill-rule="evenodd" data-name="Path 15"/></g></svg>